<?xml version="1.0" standalone="no"?>
<!DOCTYPE svg PUBLIC "-//W3C//DTD SVG 20010904//EN"
 "http://www.w3.org/TR/2001/REC-SVG-20010904/DTD/svg10.dtd">
<svg version="1.0" xmlns="http://www.w3.org/2000/svg"
 width="300.000000pt" height="300.000000pt" viewBox="0 0 300.000000 300.000000"
 preserveAspectRatio="xMidYMid meet">
<metadata>
Created by potrace 1.10, written by Peter Selinger 2001-2011
</metadata>
<g transform="translate(0.000000,300.000000) scale(0.100000,-0.100000)"
fill="#000000" stroke="none">
<path d="M1362 2174 c-56 -28 -167 -141 -212 -217 -22 -36 -25 -54 -25 -132 0
-49 4 -99 8 -109 14 -36 29 -1 31 75 3 86 11 127 32 150 8 8 14 20 14 27 0 14
78 81 110 94 14 6 42 12 63 13 44 4 55 11 40 26 -6 6 -24 7 -51 0 -59 -13 -61
3 -5 38 41 26 55 29 103 26 69 -5 153 -30 171 -52 13 -15 10 -15 -26 -9 -22 4
-45 12 -52 17 -6 6 -31 7 -55 4 -24 -4 -51 -6 -60 -6 -11 0 -15 -6 -11 -15 6
-16 53 -19 53 -3 0 5 5 7 10 4 6 -3 10 -1 10 4 0 6 7 11 15 11 8 0 15 -4 15
-10 0 -5 -5 -10 -12 -10 -27 0 3 -12 39 -15 37 -3 64 -12 111 -39 26 -15 72
-74 72 -92 0 -6 6 -17 14 -23 19 -16 40 -124 33 -175 -4 -24 -3 -46 0 -50 12
-12 15 -107 4 -120 -11 -13 -19 -73 -24 -167 -2 -27 -14 -69 -30 -99 -30 -58
-31 -60 -17 -60 5 0 21 20 35 45 26 43 39 104 49 231 3 32 10 79 16 104 9 36
8 46 -3 55 -10 7 -12 17 -6 34 5 12 10 54 10 92 2 90 -37 176 -117 259 -111
117 -238 151 -352 94z"/>
<path d="M1288 1793 c-21 -2 -38 -8 -38 -14 0 -5 -3 -8 -7 -8 -19 3 -33 -2
-33 -12 0 -6 15 -8 44 -4 56 9 149 -10 171 -35 19 -21 45 -27 45 -10 0 5 -13
16 -29 25 -16 8 -32 24 -36 35 -5 16 -12 19 -43 14 -27 -3 -33 -2 -22 5 13 10
13 11 0 9 -8 -1 -32 -3 -52 -5z"/>
<path d="M1549 1784 c-6 -8 -9 -20 -6 -28 3 -7 0 -19 -6 -25 -8 -8 -8 -11 0
-11 7 0 14 4 18 9 3 6 26 13 50 17 25 3 42 10 39 15 -3 5 7 9 22 9 19 0 25 3
18 10 -17 17 -122 19 -135 4z"/>
<path d="M1330 1721 c-21 -12 -82 -22 -76 -13 2 4 -4 8 -14 8 -10 0 -16 -6
-13 -13 3 -7 -2 -13 -11 -13 -10 0 -13 6 -9 18 5 16 5 16 -12 1 -14 -14 -15
-21 -6 -38 7 -11 20 -21 30 -21 16 0 31 -18 31 -36 0 -2 -15 -1 -32 3 l-33 6
19 -21 c27 -31 52 -28 51 6 0 15 -6 37 -13 50 -7 12 -10 27 -6 33 5 8 10 6 16
-5 11 -20 29 -21 22 -1 -5 11 2 15 27 16 35 2 76 5 94 8 14 2 -17 21 -35 21
-8 -1 -22 -4 -30 -9z"/>
<path d="M1557 1713 c-11 -10 -8 -33 3 -33 6 0 10 7 10 16 0 9 7 14 17 12 25
-5 28 -29 4 -35 -25 -6 -27 -21 -5 -30 10 -4 25 4 40 21 23 24 23 31 1 27 -4
-1 -10 6 -13 14 -6 15 -45 21 -57 8z"/>
<path d="M1635 1711 c16 -16 95 -26 95 -12 0 6 -3 11 -7 12 -5 0 -28 2 -53 5
-28 3 -41 1 -35 -5z"/>
<path d="M1399 1695 c-1 -3 -2 -8 -3 -12 -4 -23 -18 -32 -34 -24 -12 6 -24 4
-37 -6 -19 -14 -18 -14 13 -10 17 3 32 1 32 -5 0 -15 44 -5 52 12 12 27 9 40
-9 33 -11 -4 -14 -3 -9 5 4 7 5 12 2 12 -3 0 -7 -2 -7 -5z"/>
<path d="M1730 1680 c-25 -10 -55 -19 -67 -19 -13 -1 -23 -5 -23 -10 0 -11 27
-8 93 9 27 7 47 18 47 26 0 8 -1 14 -2 13 -2 0 -23 -9 -48 -19z"/>
<path d="M1120 1666 c0 -13 9 -43 19 -67 11 -24 27 -87 36 -139 11 -61 27
-114 45 -148 27 -50 28 -56 14 -77 -11 -17 -12 -29 -5 -49 6 -14 9 -26 7 -26
-6 0 20 -91 38 -133 9 -20 43 -64 75 -96 32 -32 77 -86 100 -119 l41 -61 27
26 c29 26 120 87 202 135 43 25 78 76 80 117 1 15 -58 139 -70 146 -4 3 -9
-22 -11 -55 -2 -44 0 -57 7 -46 9 12 13 9 23 -12 21 -50 -3 -103 -57 -124 -23
-9 -39 -12 -36 -7 4 5 1 9 -5 9 -6 0 -10 -8 -9 -17 3 -32 -1 -42 -19 -47 -10
-3 -42 -21 -71 -40 -51 -33 -81 -37 -81 -12 0 7 -17 28 -37 46 -22 20 -32 35
-24 38 7 2 -10 25 -39 54 -27 27 -50 52 -50 55 0 4 -8 25 -19 47 -40 89 -52
133 -45 175 5 30 1 53 -14 88 -24 58 -56 217 -48 239 3 8 2 12 -4 9 -6 -3 -10
-1 -10 5 0 6 -5 8 -11 4 -7 -4 -10 8 -8 38 2 24 -1 49 -5 56 -13 21 -36 13
-36 -12z"/>
<path d="M1446 1674 c-3 -9 -6 -23 -6 -32 0 -9 -12 -29 -27 -44 -15 -15 -22
-28 -16 -28 18 0 82 80 80 101 -2 23 -22 25 -31 3z"/>
<path d="M1501 1661 c-12 -8 -9 -16 15 -44 16 -20 33 -36 38 -36 5 -1 3 5 -3
13 -6 7 -9 22 -5 32 5 16 4 16 -5 4 -10 -14 -16 -7 -12 13 1 5 -4 5 -10 1 -9
-5 -10 -2 -6 9 7 20 7 20 -12 8z"/>
<path d="M1593 1543 c10 -23 27 -31 27 -14 0 5 7 11 16 13 8 2 0 8 -19 14 -34
10 -35 10 -24 -13z"/>
<path d="M1525 1536 c-19 -14 -19 -15 -2 -21 22 -9 50 2 45 17 -6 18 -22 20
-43 4z"/>
<path d="M1390 1530 c0 -5 11 -12 25 -16 14 -3 22 -10 19 -15 -3 -5 9 -9 25
-9 20 0 31 5 31 14 0 9 -7 12 -18 9 -10 -2 -24 3 -31 11 -15 18 -51 22 -51 6z"/>
<path d="M1385 1443 c-61 -31 -85 -51 -85 -71 0 -12 7 -9 28 10 15 14 46 35
70 47 23 12 42 26 42 31 0 12 4 14 -55 -17z"/>
<path d="M1503 1453 c-25 -5 -30 -18 -11 -29 6 -4 18 2 26 12 10 14 16 15 19
6 3 -7 23 -22 44 -33 38 -19 46 -45 11 -35 -10 3 -41 7 -69 10 -29 3 -57 7
-63 11 -5 3 -10 2 -10 -2 0 -5 -12 -14 -27 -20 -23 -9 -12 -11 67 -12 75 -1
102 -5 127 -20 l31 -20 6 25 c9 34 -8 55 -67 84 -60 29 -56 28 -84 23z"/>
<path d="M1400 1280 c0 -28 125 -29 153 -1 8 8 -12 11 -71 11 -45 0 -82 -4
-82 -10z"/>
<path d="M1730 1230 c0 -13 6 -31 14 -39 8 -9 24 -34 36 -56 l22 -40 -6 34
c-3 19 -20 54 -36 79 -25 38 -30 42 -30 22z"/>
<path d="M1650 1199 c-19 -12 -37 -25 -40 -28 -9 -14 -45 -24 -74 -22 -20 2
-27 -1 -24 -11 12 -32 113 6 162 61 24 26 20 26 -24 0z"/>
<path d="M1079 1135 c-31 -17 -43 -41 -26 -51 7 -4 9 -4 5 1 -9 9 16 35 34 35
7 1 24 7 38 15 l25 14 -25 0 c-14 0 -37 -6 -51 -14z"/>
<path d="M904 1005 c-2 -29 8 -32 27 -8 12 14 12 16 0 8 -11 -6 -13 -4 -8 8 4
10 1 17 -6 17 -7 0 -13 -11 -13 -25z"/>
<path d="M1174 1000 c-20 -8 -54 -46 -54 -61 0 -3 13 -6 28 -5 22 1 28 5 24
19 -2 9 1 17 7 17 7 0 9 -4 6 -10 -3 -5 -2 -10 3 -10 14 0 23 29 15 45 -5 8
-15 10 -29 5z"/>
<path d="M799 948 c-12 -40 -1 -54 27 -33 18 14 18 14 -4 15 -13 0 -20 4 -17
10 3 6 4 10 1 10 -3 0 -6 -1 -7 -2z"/>
<path d="M1856 904 c-3 -9 -6 -23 -6 -31 0 -12 5 -11 19 6 11 13 25 20 30 16
6 -3 11 -2 11 3 0 10 -23 22 -40 22 -4 0 -11 -7 -14 -16z"/>
<path d="M1262 836 c2 -19 11 -32 26 -37 28 -11 27 -1 -4 36 l-25 30 3 -29z"/>
<path d="M1360 750 c0 -5 7 -6 17 -3 12 5 14 3 8 -7 -6 -10 -4 -12 9 -7 10 4
20 7 22 7 3 0 2 5 -1 10 -8 13 -55 13 -55 0z"/>
<path d="M1892 698 c-7 -7 -12 -18 -12 -25 0 -16 46 -17 56 -1 4 7 3 8 -4 4
-7 -4 -20 -3 -29 3 -15 8 -16 10 -3 15 43 14 45 14 25 15 -12 1 -26 -4 -33
-11z"/>
<path d="M2265 700 c-4 -6 -14 -9 -23 -8 -9 2 -18 -5 -20 -14 -3 -14 4 -17 38
-16 32 0 40 4 36 15 -3 8 -6 19 -6 24 0 12 -17 11 -25 -1z"/>
</g>
</svg>
